<svg width="14" height="8" viewBox="0 0 14 8" fill="none" xmlns="http://www.w3.org/2000/svg">
<path d="M13.0087 0.292784C12.8212 0.105313 12.5669 -2.38419e-06 12.3017 -2.38419e-06C12.0366 -2.38419e-06 11.7823 0.105313 11.5947 0.292784L6.64473 5.24278L1.69473 0.292784C1.50612 0.110626 1.25352 0.00983181 0.991325 0.0121102C0.729129 0.0143887 0.478316 0.119557 0.292908 0.304965C0.1075 0.490374 0.00233182 0.741186 5.34058e-05 1.00338C-0.00222501 1.26558 0.0985693 1.51818 0.280727 1.70678L5.93773 7.36378C6.12526 7.55126 6.37956 7.65657 6.64473 7.65657C6.90989 7.65657 7.1642 7.55126 7.35173 7.36378L13.0087 1.70678C13.1962 1.51926 13.3015 1.26495 13.3015 0.999784C13.3015 0.73462 13.1962 0.480312 13.0087 0.292784Z" fill="#6A6A6A"/>
</svg>
