<svg width="14" height="8" viewBox="0 0 14 8" fill="none" xmlns="http://www.w3.org/2000/svg">
<path d="M0.292786 7.36379C0.480314 7.55126 0.734622 7.65657 0.999786 7.65657C1.26495 7.65657 1.51926 7.55126 1.70679 7.36379L6.65679 2.41379L11.6068 7.36379C11.7954 7.54594 12.048 7.64674 12.3102 7.64446C12.5724 7.64218 12.8232 7.53701 13.0086 7.3516C13.194 7.1662 13.2992 6.91538 13.3015 6.65319C13.3037 6.39099 13.2029 6.13839 13.0208 5.94979L7.36379 0.292786C7.17626 0.105315 6.92195 0 6.65679 0C6.39162 0 6.13731 0.105315 5.94979 0.292786L0.292786 5.94979C0.105315 6.13731 0 6.39162 0 6.65679C0 6.92195 0.105315 7.17626 0.292786 7.36379Z" fill="#6A6A6A"/>
</svg>
