<svg width="15" height="15" viewBox="0 0 15 15" fill="none" xmlns="http://www.w3.org/2000/svg">
<path fill-rule="evenodd" clip-rule="evenodd" d="M5 1.66667C5 1.22464 5.17559 0.800716 5.48816 0.488155C5.80072 0.175595 6.22464 0 6.66667 0H8.33333C8.77536 0 9.19928 0.175595 9.51184 0.488155C9.8244 0.800716 10 1.22464 10 1.66667V5H13.3333C13.7754 5 14.1993 5.17559 14.5118 5.48816C14.8244 5.80072 15 6.22464 15 6.66667V8.33333C15 8.77536 14.8244 9.19928 14.5118 9.51184C14.1993 9.8244 13.7754 10 13.3333 10H10V13.3333C10 13.7754 9.8244 14.1993 9.51184 14.5118C9.19928 14.8244 8.77536 15 8.33333 15H6.66667C6.22464 15 5.80072 14.8244 5.48816 14.5118C5.17559 14.1993 5 13.7754 5 13.3333V10H1.66667C1.22464 10 0.800716 9.8244 0.488155 9.51184C0.175595 9.19928 0 8.77536 0 8.33333V6.66667C0 6.22464 0.175595 5.80072 0.488155 5.48816C0.800716 5.17559 1.22464 5 1.66667 5H5V1.66667Z" fill="white"/>
</svg>
