<svg width="20" height="20" viewBox="0 0 20 20" fill="none" xmlns="http://www.w3.org/2000/svg">
<path d="M10 0C15.523 0 20 4.477 20 10C20 15.523 15.523 20 10 20C4.477 20 0 15.523 0 10C0 4.477 4.477 0 10 0ZM10.16 14C9.19258 13.9988 8.23547 14.1988 7.34943 14.5871C6.46338 14.9755 5.66774 15.5438 5.013 16.256C6.42871 17.3874 8.18773 18.0026 10 18C11.8923 18.0027 13.7239 17.3321 15.167 16.108C14.5157 15.4398 13.737 14.909 12.877 14.5469C12.017 14.1848 11.0931 13.9989 10.16 14ZM10 2C8.51209 2.00004 7.05367 2.41502 5.78863 3.19833C4.5236 3.98163 3.50208 5.10221 2.83887 6.43414C2.17566 7.76607 1.89704 9.25656 2.03432 10.7381C2.1716 12.2197 2.71935 13.6336 3.616 14.821C4.45655 13.9291 5.47076 13.2187 6.5962 12.7336C7.72163 12.2484 8.93445 11.9988 10.16 12C11.3417 11.9984 12.512 12.2302 13.6038 12.6822C14.6956 13.1343 15.6873 13.7975 16.522 14.634C17.3725 13.4371 17.8772 12.0292 17.9809 10.5646C18.0845 9.09994 17.783 7.63503 17.1095 6.33031C16.436 5.0256 15.4163 3.93141 14.1623 3.16761C12.9083 2.40381 11.4683 1.99985 10 2ZM10 3C11.0609 3 12.0783 3.42143 12.8284 4.17157C13.5786 4.92172 14 5.93913 14 7C14 8.06087 13.5786 9.07828 12.8284 9.82843C12.0783 10.5786 11.0609 11 10 11C8.93913 11 7.92172 10.5786 7.17157 9.82843C6.42143 9.07828 6 8.06087 6 7C6 5.93913 6.42143 4.92172 7.17157 4.17157C7.92172 3.42143 8.93913 3 10 3ZM10 5C9.46957 5 8.96086 5.21071 8.58579 5.58579C8.21071 5.96086 8 6.46957 8 7C8 7.53043 8.21071 8.03914 8.58579 8.41421C8.96086 8.78929 9.46957 9 10 9C10.5304 9 11.0391 8.78929 11.4142 8.41421C11.7893 8.03914 12 7.53043 12 7C12 6.46957 11.7893 5.96086 11.4142 5.58579C11.0391 5.21071 10.5304 5 10 5Z" fill="#7A7A7A"/>
</svg>
