<svg width="20" height="23" viewBox="0 0 20 23" fill="none" xmlns="http://www.w3.org/2000/svg">
<path d="M1 1H2.92857L6.14286 16.75M6.14286 16.75H16.4286M6.14286 16.75C5.46087 16.75 4.80682 17.0266 4.32458 17.5188C3.84235 18.0111 3.57143 18.6788 3.57143 19.375C3.57143 20.0712 3.84235 20.7389 4.32458 21.2312C4.80682 21.7234 5.46087 22 6.14286 22C6.82484 22 7.47889 21.7234 7.96113 21.2312C8.44337 20.7389 8.71429 20.0712 8.71429 19.375C8.71429 18.6788 8.44337 18.0111 7.96113 17.5188C7.47889 17.0266 6.82484 16.75 6.14286 16.75ZM16.4286 16.75C15.7466 16.75 15.0925 17.0266 14.6103 17.5188C14.1281 18.0111 13.8571 18.6788 13.8571 19.375C13.8571 20.0712 14.1281 20.7389 14.6103 21.2312C15.0925 21.7234 15.7466 22 16.4286 22C17.1106 22 17.7646 21.7234 18.2468 21.2312C18.7291 20.7389 19 20.0712 19 19.375C19 18.6788 18.7291 18.0111 18.2468 17.5188C17.7646 17.0266 17.1106 16.75 16.4286 16.75ZM5.5 12.8125H17.3929L19 4.9375H3.97257" stroke="#7A7A7A" stroke-width="2" stroke-linecap="round" stroke-linejoin="round"/>
</svg>
