<svg width="40" height="40" viewBox="0 0 40 40" fill="none" xmlns="http://www.w3.org/2000/svg">
<rect x="1" y="1" width="38" height="38" rx="19" stroke="#828AB6" stroke-width="2"/>
<path d="M23.6558 12.3302C23.8762 12.5416 24 12.8284 24 13.1275C24 13.4265 23.8762 13.7133 23.6558 13.9247L17.8373 19.5068L23.6558 25.0889C23.87 25.3016 23.9884 25.5864 23.9858 25.8821C23.9831 26.1778 23.8595 26.4606 23.6415 26.6697C23.4236 26.8788 23.1288 26.9974 22.8206 27C22.5124 27.0025 22.2154 26.8889 21.9937 26.6834L15.3442 20.3041C15.1238 20.0926 15 19.8058 15 19.5068C15 19.2078 15.1238 18.921 15.3442 18.7095L21.9937 12.3302C22.2142 12.1188 22.5131 12 22.8248 12C23.1365 12 23.4354 12.1188 23.6558 12.3302Z" fill="#828AB6"/>
</svg>
