<svg width="55" height="55" viewBox="0 0 55 55" fill="none" xmlns="http://www.w3.org/2000/svg">
<rect x="9.40759" width="46.5529" height="46.5529" rx="5" transform="rotate(11.6588 9.40759 0)" fill="#828AB6"/>
<rect x="10" y="9.85123" width="36" height="37" rx="5" fill="#211966"/>
<path d="M17 15.8512H19.25L23 34.6012M23 34.6012H35M23 34.6012C22.2044 34.6012 21.4413 34.9305 20.8787 35.5165C20.3161 36.1026 20 36.8974 20 37.7262C20 38.555 20.3161 39.3499 20.8787 39.9359C21.4413 40.522 22.2044 40.8512 23 40.8512C23.7956 40.8512 24.5587 40.522 25.1213 39.9359C25.6839 39.3499 26 38.555 26 37.7262C26 36.8974 25.6839 36.1026 25.1213 35.5165C24.5587 34.9305 23.7956 34.6012 23 34.6012ZM35 34.6012C34.2044 34.6012 33.4413 34.9305 32.8787 35.5165C32.3161 36.1026 32 36.8974 32 37.7262C32 38.555 32.3161 39.3499 32.8787 39.9359C33.4413 40.522 34.2044 40.8512 35 40.8512C35.7956 40.8512 36.5587 40.522 37.1213 39.9359C37.6839 39.3499 38 38.555 38 37.7262C38 36.8974 37.6839 36.1026 37.1213 35.5165C36.5587 34.9305 35.7956 34.6012 35 34.6012ZM22.25 29.9137H36.125L38 20.5387H20.468" stroke="white" stroke-width="1.5" stroke-linecap="round" stroke-linejoin="round"/>
</svg>
