<svg width="16" height="20" viewBox="0 0 16 20" fill="none" xmlns="http://www.w3.org/2000/svg">
<path d="M15 8C15 12.3689 10.1534 16.9189 8.52587 18.3241C8.37426 18.4381 8.1897 18.4998 8 18.4998C7.8103 18.4998 7.62574 18.4381 7.47413 18.3241C5.84663 16.9189 1 12.3689 1 8C1 6.14348 1.7375 4.36301 3.05025 3.05025C4.36301 1.7375 6.14348 1 8 1C9.85652 1 11.637 1.7375 12.9497 3.05025C14.2625 4.36301 15 6.14348 15 8Z" stroke="#7A7A7A" stroke-width="1.5" stroke-linecap="round" stroke-linejoin="round"/>
<path d="M8 10.625C9.44975 10.625 10.625 9.44975 10.625 8C10.625 6.55025 9.44975 5.375 8 5.375C6.55025 5.375 5.375 6.55025 5.375 8C5.375 9.44975 6.55025 10.625 8 10.625Z" stroke="#7A7A7A" stroke-width="1.5" stroke-linecap="round" stroke-linejoin="round"/>
</svg>
