<svg width="40" height="40" viewBox="0 0 40 40" fill="none" xmlns="http://www.w3.org/2000/svg">
<rect x="39" y="39" width="38" height="38" rx="19" transform="rotate(-180 39 39)" stroke="#828AB6" stroke-width="2"/>
<path d="M16.3442 27.6698C16.1238 27.4584 16 27.1716 16 26.8725C16 26.5735 16.1238 26.2867 16.3442 26.0753L22.1627 20.4932L16.3442 14.9111C16.13 14.6984 16.0116 14.4136 16.0142 14.1179C16.0169 13.8222 16.1405 13.5394 16.3585 13.3303C16.5764 13.1212 16.8712 13.0026 17.1794 13C17.4876 12.9975 17.7846 13.1111 18.0063 13.3166L24.6558 19.6959C24.8762 19.9074 25 20.1942 25 20.4932C25 20.7922 24.8762 21.079 24.6558 21.2905L18.0063 27.6698C17.7858 27.8812 17.4869 28 17.1752 28C16.8635 28 16.5646 27.8812 16.3442 27.6698Z" fill="#828AB6"/>
</svg>
