<svg width="21" height="21" viewBox="0 0 21 21" fill="none" xmlns="http://www.w3.org/2000/svg">
<path fill-rule="evenodd" clip-rule="evenodd" d="M8.96137 2.02109e-08C7.53227 0.000121771 6.12392 0.342 4.85382 0.99711C3.58372 1.65222 2.4887 2.60157 1.66012 3.76595C0.831534 4.93032 0.293417 6.27597 0.0906601 7.69061C-0.112097 9.10525 0.0263869 10.5479 0.494557 11.8981C0.962727 13.2483 1.74701 14.4671 2.78197 15.4525C3.81693 16.438 5.07255 17.1617 6.44408 17.5633C7.81561 17.9648 9.26328 18.0325 10.6663 17.7607C12.0693 17.489 13.387 16.8857 14.5095 16.0011L18.36 19.8517C18.5589 20.0437 18.8252 20.15 19.1017 20.1476C19.3781 20.1452 19.6426 20.0343 19.838 19.8388C20.0335 19.6433 20.1444 19.3789 20.1468 19.1024C20.1492 18.826 20.043 18.5596 19.8509 18.3608L16.0003 14.5102C17.042 13.1887 17.6907 11.6006 17.8719 9.92765C18.0532 8.25471 17.7599 6.56452 17.0254 5.05052C16.291 3.53653 15.1451 2.25989 13.719 1.36671C12.2929 0.473524 10.6441 -0.000112969 8.96137 2.02109e-08ZM2.10798 8.96213C2.10798 7.1445 2.83003 5.40131 4.11529 4.11605C5.40055 2.83079 7.14374 2.10874 8.96137 2.10874C10.779 2.10874 12.5222 2.83079 13.8075 4.11605C15.0927 5.40131 15.8148 7.1445 15.8148 8.96213C15.8148 10.7798 15.0927 12.523 13.8075 13.8082C12.5222 15.0935 10.779 15.8155 8.96137 15.8155C7.14374 15.8155 5.40055 15.0935 4.11529 13.8082C2.83003 12.523 2.10798 10.7798 2.10798 8.96213Z" fill="#7A7A7A"/>
</svg>
